<svg width="42" height="35" viewBox="0 0 42 35" fill="none" xmlns="http://www.w3.org/2000/svg">
<path d="M11.5673 20.12C11.214 20.12 10.894 20.0567 10.6073 19.93C10.3273 19.8033 10.084 19.6233 9.87734 19.39C9.67734 19.15 9.52068 18.8667 9.40734 18.54C9.30068 18.2067 9.24734 17.8333 9.24734 17.42C9.24734 17.0133 9.30068 16.6433 9.40734 16.31C9.52068 15.9767 9.67734 15.6933 9.87734 15.46C10.084 15.22 10.3273 15.0367 10.6073 14.91C10.894 14.7833 11.214 14.72 11.5673 14.72C11.914 14.72 12.224 14.7833 12.4973 14.91C12.7707 15.0367 13.004 15.2133 13.1973 15.44C13.3907 15.66 13.5373 15.9233 13.6373 16.23C13.744 16.5367 13.7973 16.8733 13.7973 17.24V17.62H10.0873V17.86C10.0873 18.08 10.1207 18.2867 10.1873 18.48C10.2607 18.6667 10.3607 18.83 10.4873 18.97C10.6207 19.11 10.7807 19.22 10.9673 19.3C11.1607 19.38 11.3773 19.42 11.6173 19.42C11.944 19.42 12.2273 19.3433 12.4673 19.19C12.714 19.0367 12.904 18.8167 13.0373 18.53L13.6073 18.94C13.4407 19.2933 13.1807 19.58 12.8273 19.8C12.474 20.0133 12.054 20.12 11.5673 20.12ZM11.5673 15.39C11.3473 15.39 11.1473 15.43 10.9673 15.51C10.7873 15.5833 10.6307 15.69 10.4973 15.83C10.3707 15.97 10.2707 16.1367 10.1973 16.33C10.124 16.5167 10.0873 16.7233 10.0873 16.95V17.02H12.9373V16.91C12.9373 16.45 12.8107 16.0833 12.5573 15.81C12.3107 15.53 11.9807 15.39 11.5673 15.39ZM16.3584 20L18.2684 17.4L16.4384 14.84H17.3784L18.6884 16.76H18.7184L20.0784 14.84H20.9684L19.1484 17.34L21.0084 20H20.0684L18.7284 17.98H18.6984L17.2484 20H16.3584ZM24.4668 13.63C24.2935 13.63 24.1668 13.59 24.0868 13.51C24.0135 13.4233 23.9768 13.3133 23.9768 13.18V13.05C23.9768 12.9167 24.0135 12.81 24.0868 12.73C24.1668 12.6433 24.2935 12.6 24.4668 12.6C24.6401 12.6 24.7635 12.6433 24.8368 12.73C24.9168 12.81 24.9568 12.9167 24.9568 13.05V13.18C24.9568 13.3133 24.9168 13.4233 24.8368 13.51C24.7635 13.59 24.6401 13.63 24.4668 13.63ZM24.0668 14.84H24.8668V20H24.0668V14.84ZM29.7068 20C29.4268 20 29.2135 19.9233 29.0668 19.77C28.9268 19.61 28.8568 19.4033 28.8568 19.15V15.54H28.0068V14.84H28.4868C28.6601 14.84 28.7768 14.8067 28.8368 14.74C28.9035 14.6667 28.9368 14.5433 28.9368 14.37V13.41H29.6568V14.84H30.7868V15.54H29.6568V19.3H30.7068V20H29.7068Z" fill="black"/>
<rect x="0.5" y="0.5" width="41" height="34" stroke="black"/>
</svg>
