<svg width="26" height="28" viewBox="0 0 26 28" fill="none" xmlns="http://www.w3.org/2000/svg">
<path d="M18.5 27.2835V22.446C18.5469 21.8499 18.4664 21.2507 18.2638 20.6882C18.0612 20.1257 17.7412 19.6128 17.325 19.1835C21.25 18.746 25.375 17.2585 25.375 10.4335C25.3747 8.68827 24.7034 7.00999 23.5 5.74599C24.0698 4.21912 24.0295 2.53143 23.3875 1.03349C23.3875 1.03349 21.9125 0.595991 18.5 2.88349C15.635 2.10702 12.615 2.10702 9.75 2.88349C6.3375 0.595991 4.8625 1.03349 4.8625 1.03349C4.22047 2.53143 4.18018 4.21912 4.75 5.74599C3.53766 7.01937 2.86565 8.71282 2.875 10.471C2.875 17.246 7 18.7335 10.925 19.221C10.5137 19.646 10.1966 20.1527 9.99414 20.7084C9.79169 21.264 9.70851 21.8561 9.75 22.446V27.2835M9.75 23.5335C3.5 25.4085 3.5 20.4085 1 19.7835L9.75 23.5335Z" stroke="#E7E7E7" stroke-linecap="round" stroke-linejoin="round"/>
</svg>
