<svg width="35" height="35" viewBox="0 0 35 35" fill="none" xmlns="http://www.w3.org/2000/svg">
<line y1="1" x2="35" y2="1" stroke="black" stroke-width="2"/>
<line y1="14.8947" x2="35" y2="14.7632" stroke="black" stroke-width="2"/>
<line y1="7.94736" x2="35" y2="7.94736" stroke="black" stroke-width="2"/>
<path d="M1.55703 30.2368V25.0768H2.35703V25.9168H2.39703C2.45703 25.7835 2.5237 25.6602 2.59703 25.5468C2.67703 25.4268 2.77036 25.3235 2.87703 25.2368C2.99036 25.1502 3.12036 25.0835 3.26703 25.0368C3.4137 24.9835 3.58703 24.9568 3.78703 24.9568C4.12703 24.9568 4.44036 25.0402 4.72703 25.2068C5.0137 25.3668 5.22703 25.6335 5.36703 26.0068H5.38703C5.48036 25.7268 5.6537 25.4835 5.90703 25.2768C6.16703 25.0635 6.51703 24.9568 6.95703 24.9568C7.4837 24.9568 7.8937 25.1302 8.18703 25.4768C8.48703 25.8168 8.63703 26.3002 8.63703 26.9268V30.2368H7.83703V27.0668C7.83703 26.6068 7.74703 26.2602 7.56703 26.0268C7.38703 25.7935 7.10036 25.6768 6.70703 25.6768C6.54703 25.6768 6.3937 25.6968 6.24703 25.7368C6.10703 25.7768 5.98037 25.8368 5.86703 25.9168C5.7537 25.9968 5.6637 26.1002 5.59703 26.2268C5.53036 26.3468 5.49703 26.4902 5.49703 26.6568V30.2368H4.69703V27.0668C4.69703 26.6068 4.60703 26.2602 4.42703 26.0268C4.24703 25.7935 3.96703 25.6768 3.58703 25.6768C3.42703 25.6768 3.2737 25.6968 3.12703 25.7368C2.98036 25.7768 2.85036 25.8368 2.73703 25.9168C2.6237 25.9968 2.53036 26.1002 2.45703 26.2268C2.39036 26.3468 2.35703 26.4902 2.35703 26.6568V30.2368H1.55703ZM14.2275 30.3568C13.8742 30.3568 13.5542 30.2935 13.2675 30.1668C12.9875 30.0402 12.7442 29.8602 12.5375 29.6268C12.3375 29.3868 12.1808 29.1035 12.0675 28.7768C11.9608 28.4435 11.9075 28.0702 11.9075 27.6568C11.9075 27.2502 11.9608 26.8802 12.0675 26.5468C12.1808 26.2135 12.3375 25.9302 12.5375 25.6968C12.7442 25.4568 12.9875 25.2735 13.2675 25.1468C13.5542 25.0202 13.8742 24.9568 14.2275 24.9568C14.5742 24.9568 14.8842 25.0202 15.1575 25.1468C15.4308 25.2735 15.6642 25.4502 15.8575 25.6768C16.0508 25.8968 16.1975 26.1602 16.2975 26.4668C16.4042 26.7735 16.4575 27.1102 16.4575 27.4768V27.8568H12.7475V28.0968C12.7475 28.3168 12.7808 28.5235 12.8475 28.7168C12.9208 28.9035 13.0208 29.0668 13.1475 29.2068C13.2808 29.3468 13.4408 29.4568 13.6275 29.5368C13.8208 29.6168 14.0375 29.6568 14.2775 29.6568C14.6042 29.6568 14.8875 29.5802 15.1275 29.4268C15.3742 29.2735 15.5642 29.0535 15.6975 28.7668L16.2675 29.1768C16.1008 29.5302 15.8408 29.8168 15.4875 30.0368C15.1342 30.2502 14.7142 30.3568 14.2275 30.3568ZM14.2275 25.6268C14.0075 25.6268 13.8075 25.6668 13.6275 25.7468C13.4475 25.8202 13.2908 25.9268 13.1575 26.0668C13.0308 26.2068 12.9308 26.3735 12.8575 26.5668C12.7842 26.7535 12.7475 26.9602 12.7475 27.1868V27.2568H15.5975V27.1468C15.5975 26.6868 15.4708 26.3202 15.2175 26.0468C14.9708 25.7668 14.6408 25.6268 14.2275 25.6268ZM19.7758 30.2368V25.0768H20.5758V25.9168H20.6158C20.7424 25.6235 20.9191 25.3902 21.1458 25.2168C21.3791 25.0435 21.6891 24.9568 22.0758 24.9568C22.6091 24.9568 23.0291 25.1302 23.3358 25.4768C23.6491 25.8168 23.8058 26.3002 23.8058 26.9268V30.2368H23.0058V27.0668C23.0058 26.1402 22.6158 25.6768 21.8358 25.6768C21.6758 25.6768 21.5191 25.6968 21.3658 25.7368C21.2191 25.7768 21.0858 25.8368 20.9658 25.9168C20.8458 25.9968 20.7491 26.1002 20.6758 26.2268C20.6091 26.3468 20.5758 26.4902 20.5758 26.6568V30.2368H19.7758ZM30.6394 29.3968H30.5994C30.546 29.5168 30.4794 29.6368 30.3994 29.7568C30.326 29.8702 30.2327 29.9735 30.1194 30.0668C30.006 30.1535 29.8694 30.2235 29.7094 30.2768C29.5494 30.3302 29.3627 30.3568 29.1494 30.3568C28.616 30.3568 28.1927 30.1868 27.8794 29.8468C27.566 29.5002 27.4094 29.0135 27.4094 28.3868V25.0768H28.2094V28.2468C28.2094 29.1735 28.6027 29.6368 29.3894 29.6368C29.5494 29.6368 29.7027 29.6168 29.8494 29.5768C30.0027 29.5368 30.136 29.4768 30.2494 29.3968C30.3694 29.3168 30.4627 29.2168 30.5294 29.0968C30.6027 28.9702 30.6394 28.8202 30.6394 28.6468V25.0768H31.4394V30.2368H30.6394V29.3968Z" fill="black"/>
</svg>
