<svg width="32" height="32" viewBox="0 0 32 32" fill="none" xmlns="http://www.w3.org/2000/svg">
<path d="M30.9396 23.4608V27.977C30.9413 28.3962 30.8555 28.8112 30.6875 29.1954C30.5195 29.5795 30.2732 29.9243 29.9643 30.2078C29.6553 30.4912 29.2906 30.707 28.8934 30.8413C28.4963 30.9756 28.0754 31.0255 27.6579 30.9878C23.0255 30.4844 18.5758 28.9015 14.6662 26.3662C11.0289 24.0549 7.94511 20.9711 5.63381 17.3338C3.08964 13.4065 1.50636 8.93512 1.01222 4.28192C0.9746 3.86563 1.02407 3.44607 1.15749 3.04994C1.29091 2.65381 1.50535 2.28981 1.78715 1.9811C2.06895 1.67239 2.41195 1.42574 2.7943 1.25685C3.17665 1.08796 3.58998 1.00054 4.00797 1.00015H8.52418C9.25476 0.992955 9.96303 1.25167 10.517 1.72806C11.0709 2.20445 11.4327 2.86601 11.535 3.58944C11.7256 5.03473 12.0791 6.45381 12.5888 7.81962C12.7913 8.35844 12.8351 8.94403 12.7151 9.507C12.595 10.07 12.3161 10.5867 11.9113 10.996L9.99948 12.9079C12.1425 16.6767 15.2631 19.7973 19.0319 21.9403L20.9438 20.0284C21.3531 19.6237 21.8698 19.3448 22.4328 19.2247C22.9958 19.1046 23.5813 19.1485 24.1202 19.351C25.486 19.8607 26.9051 20.2142 28.3503 20.4048C29.0816 20.508 29.7495 20.8763 30.2269 21.4398C30.7043 22.0032 30.958 22.7225 30.9396 23.4608Z" stroke="#F9F9F9" stroke-linecap="round" stroke-linejoin="round"/>
</svg>
